<?xml version="1.0" ?><!DOCTYPE svg  PUBLIC '-//W3C//DTD SVG 1.1//EN'  'http://www.w3.org/Graphics/SVG/1.1/DTD/svg11.dtd'><svg enable-background="new 0 0 48 48" height="48px" id="Layer_1" version="1.1" viewBox="0 0 48 48" width="48px" xml:space="preserve" xmlns="http://www.w3.org/2000/svg" xmlns:xlink="http://www.w3.org/1999/xlink"><g><path d="M27.26,17.394h-6.486c-0.667,0-1.208,0.531-1.208,1.187v5.014v0.966v4.989   c0.003,0.078,0.076,0.322,0.92-0.022h0l3.028-1.234c0.01-0.004,0.556-0.191,1.026,0.001l3.486,1.427   c0.201,0.067,0.443,0.104,0.443-0.109V24.56v-0.966V18.58C28.469,17.925,27.928,17.394,27.26,17.394z" fill="#231F20"/><path d="M24,0C10.745,0,0,10.745,0,24s10.745,24,24,24s24-10.745,24-24S37.255,0,24,0z M31.5,24.026v1.628v8.52   c0,0.388-0.568,0.232-0.912,0.104l-5.884-2.408c0,0,0,0,0,0c-0.663-0.271-1.332-0.018-1.371-0.003l-5.566,2.269h0   c-1.156,0.472-1.26,0.146-1.265,0.035v-8.517v-1.628V15.58c0-1.104,0.912-2,2.036-2h10.926c1.125,0,2.037,0.896,2.037,2V24.026z" fill="#231F20"/></g></svg>